<svg width="456" height="59" viewBox="0 0 456 59" fill="none" xmlns="http://www.w3.org/2000/svg">
<g clip-path="url(#clip0_2501_2)">
<path d="M73.635 46.45C71.415 46.45 69.465 46.06 67.785 45.28C66.135 44.5 64.845 43.39 63.915 41.95C63.015 40.48 62.565 38.74 62.565 36.73H68.1C68.1 38.2 68.595 39.37 69.585 40.24C70.605 41.11 71.955 41.545 73.635 41.545C75.255 41.545 76.53 41.125 77.46 40.285C78.42 39.415 78.9 38.26 78.9 36.82C78.9 35.74 78.585 34.795 77.955 33.985C77.355 33.145 76.485 32.575 75.345 32.275L70.935 31.15C68.565 30.55 66.69 29.425 65.31 27.775C63.93 26.125 63.24 24.16 63.24 21.88C63.24 19.09 64.155 16.87 65.985 15.22C67.815 13.54 70.26 12.7 73.32 12.7C75.39 12.7 77.19 13.075 78.72 13.825C80.28 14.575 81.48 15.64 82.32 17.02C83.16 18.37 83.58 19.96 83.58 21.79H78.09C78.09 20.53 77.655 19.51 76.785 18.73C75.915 17.95 74.76 17.56 73.32 17.56C71.91 17.56 70.785 17.95 69.945 18.73C69.135 19.48 68.73 20.47 68.73 21.7C68.73 22.72 69.015 23.56 69.585 24.22C70.185 24.88 71.01 25.36 72.06 25.66L76.605 26.785C79.035 27.385 80.94 28.585 82.32 30.385C83.73 32.185 84.435 34.33 84.435 36.82C84.435 38.77 83.985 40.465 83.085 41.905C82.215 43.345 80.97 44.47 79.35 45.28C77.73 46.06 75.825 46.45 73.635 46.45ZM100.527 46.45C98.4274 46.45 96.5974 46.045 95.0374 45.235C93.4774 44.425 92.2624 43.285 91.3924 41.815C90.5524 40.315 90.1324 38.56 90.1324 36.55V30.7C90.1324 28.69 90.5524 26.95 91.3924 25.48C92.2624 23.98 93.4774 22.825 95.0374 22.015C96.5974 21.205 98.4274 20.8 100.527 20.8C102.597 20.8 104.397 21.205 105.927 22.015C107.487 22.825 108.687 23.965 109.527 25.435C110.397 26.875 110.832 28.57 110.832 30.52V35.02H95.5324V36.73C95.5324 38.41 95.9674 39.685 96.8374 40.555C97.7074 41.395 98.9374 41.815 100.527 41.815C101.697 41.815 102.687 41.62 103.497 41.23C104.337 40.81 104.832 40.21 104.982 39.43H110.562C110.172 41.56 109.062 43.27 107.232 44.56C105.402 45.82 103.167 46.45 100.527 46.45ZM95.5324 30.52V31.375L105.432 31.33V30.475C105.432 28.765 105.012 27.445 104.172 26.515C103.332 25.585 102.117 25.12 100.527 25.12C98.8774 25.12 97.6324 25.6 96.7924 26.56C95.9524 27.49 95.5324 28.81 95.5324 30.52ZM129.715 46.45C127.975 46.45 126.52 46.015 125.35 45.145C124.18 44.275 123.37 43.06 122.92 41.5V46H117.43V13.15H123.055V20.08L122.875 25.75C123.355 24.19 124.18 22.975 125.35 22.105C126.55 21.235 128.005 20.8 129.715 20.8C132.145 20.8 134.095 21.655 135.565 23.365C137.035 25.075 137.77 27.385 137.77 30.295V37C137.77 39.88 137.02 42.175 135.52 43.885C134.05 45.595 132.115 46.45 129.715 46.45ZM127.6 41.59C129.04 41.59 130.15 41.2 130.93 40.42C131.74 39.64 132.145 38.44 132.145 36.82V30.43C132.145 28.81 131.74 27.61 130.93 26.83C130.15 26.05 129.04 25.66 127.6 25.66C126.16 25.66 125.035 26.095 124.225 26.965C123.445 27.835 123.055 29.065 123.055 30.655V36.595C123.055 38.185 123.445 39.415 124.225 40.285C125.035 41.155 126.16 41.59 127.6 41.59ZM151.702 46.45C149.182 46.45 147.187 45.745 145.717 44.335C144.277 42.895 143.557 41.02 143.557 38.71C143.557 36.31 144.382 34.405 146.032 32.995C147.682 31.555 149.947 30.835 152.827 30.835H158.857V29.08C158.857 26.59 157.402 25.345 154.492 25.345C153.172 25.345 152.122 25.6 151.342 26.11C150.562 26.62 150.127 27.34 150.037 28.27H144.637C144.757 26.05 145.687 24.25 147.427 22.87C149.197 21.49 151.567 20.8 154.537 20.8C157.687 20.8 160.132 21.535 161.872 23.005C163.612 24.475 164.482 26.545 164.482 29.215V46H158.992V41.365C158.782 42.955 158.032 44.2 156.742 45.1C155.452 46 153.772 46.45 151.702 46.45ZM153.502 41.86C155.152 41.86 156.457 41.455 157.417 40.645C158.377 39.835 158.857 38.755 158.857 37.405V34.48H153.097C151.867 34.48 150.892 34.825 150.172 35.515C149.452 36.205 149.092 37.09 149.092 38.17C149.092 39.28 149.467 40.18 150.217 40.87C150.997 41.53 152.092 41.86 153.502 41.86ZM180.395 46.405C177.455 46.405 175.13 45.745 173.42 44.425C171.71 43.075 170.855 41.26 170.855 38.98H176.39C176.39 39.94 176.735 40.675 177.425 41.185C178.145 41.695 179.135 41.95 180.395 41.95H182.375C183.725 41.95 184.76 41.695 185.48 41.185C186.23 40.675 186.605 39.94 186.605 38.98C186.605 38.08 186.35 37.42 185.84 37C185.33 36.55 184.55 36.25 183.5 36.1L177.335 35.29C175.355 35.02 173.825 34.255 172.745 32.995C171.695 31.735 171.17 30.1 171.17 28.09C171.17 25.75 171.95 23.965 173.51 22.735C175.07 21.475 177.32 20.845 180.26 20.845H182.33C185.09 20.845 187.31 21.475 188.99 22.735C190.67 23.995 191.54 25.675 191.6 27.775H186.02C185.99 26.995 185.645 26.38 184.985 25.93C184.325 25.45 183.44 25.21 182.33 25.21H180.26C179.06 25.21 178.145 25.465 177.515 25.975C176.885 26.455 176.57 27.115 176.57 27.955C176.57 28.705 176.795 29.26 177.245 29.62C177.725 29.98 178.415 30.205 179.315 30.295L185.12 31.105C187.4 31.375 189.11 32.185 190.25 33.535C191.42 34.855 192.005 36.64 192.005 38.89C192.005 41.29 191.18 43.15 189.53 44.47C187.91 45.76 185.525 46.405 182.375 46.405H180.395ZM210.887 46C208.577 46 206.732 45.34 205.352 44.02C204.002 42.67 203.327 40.855 203.327 38.575V26.335H196.487V21.25H203.327V14.275H208.997V21.25H218.852V26.335H208.997V38.44C208.997 39.16 209.192 39.76 209.582 40.24C210.002 40.69 210.572 40.915 211.292 40.915H218.627V46H210.887ZM225.315 46V40.915H233.775V26.335H226.215V21.25H239.4V40.915H247.005V46H225.315ZM236.205 17.11C235.065 17.11 234.165 16.825 233.505 16.255C232.845 15.655 232.515 14.86 232.515 13.87C232.515 12.88 232.845 12.1 233.505 11.53C234.165 10.93 235.065 10.63 236.205 10.63C237.345 10.63 238.245 10.93 238.905 11.53C239.565 12.1 239.895 12.88 239.895 13.87C239.895 14.86 239.565 15.655 238.905 16.255C238.245 16.825 237.345 17.11 236.205 17.11ZM259.632 46.45C257.112 46.45 255.117 45.745 253.647 44.335C252.207 42.895 251.487 41.02 251.487 38.71C251.487 36.31 252.312 34.405 253.962 32.995C255.612 31.555 257.877 30.835 260.757 30.835H266.787V29.08C266.787 26.59 265.332 25.345 262.422 25.345C261.102 25.345 260.052 25.6 259.272 26.11C258.492 26.62 258.057 27.34 257.967 28.27H252.567C252.687 26.05 253.617 24.25 255.357 22.87C257.127 21.49 259.497 20.8 262.467 20.8C265.617 20.8 268.062 21.535 269.802 23.005C271.542 24.475 272.412 26.545 272.412 29.215V46H266.922V41.365C266.712 42.955 265.962 44.2 264.672 45.1C263.382 46 261.702 46.45 259.632 46.45ZM261.432 41.86C263.082 41.86 264.387 41.455 265.347 40.645C266.307 39.835 266.787 38.755 266.787 37.405V34.48H261.027C259.797 34.48 258.822 34.825 258.102 35.515C257.382 36.205 257.022 37.09 257.022 38.17C257.022 39.28 257.397 40.18 258.147 40.87C258.927 41.53 260.022 41.86 261.432 41.86ZM279.324 46V21.25H284.814V25.885C285.114 24.325 285.849 23.095 287.019 22.195C288.189 21.265 289.674 20.8 291.474 20.8C293.904 20.8 295.839 21.61 297.279 23.23C298.749 24.85 299.484 27.025 299.484 29.755V46H293.859V30.43C293.859 28.9 293.454 27.73 292.644 26.92C291.864 26.08 290.799 25.66 289.449 25.66C288.039 25.66 286.929 26.08 286.119 26.92C285.339 27.76 284.949 28.96 284.949 30.52V46H279.324ZM324.295 46V13.15H334.375C337.525 13.15 340.03 13.915 341.89 15.445C343.78 16.975 344.725 19.03 344.725 21.61C344.725 23.41 344.2 24.955 343.15 26.245C342.13 27.535 340.795 28.315 339.145 28.585V28.675C340.375 28.825 341.47 29.275 342.43 30.025C343.39 30.745 344.14 31.69 344.68 32.86C345.22 34 345.49 35.26 345.49 36.64C345.49 38.53 345.055 40.18 344.185 41.59C343.315 43 342.085 44.095 340.495 44.875C338.905 45.625 337.03 46 334.87 46H324.295ZM329.785 26.695H334.285C335.755 26.695 336.925 26.305 337.795 25.525C338.665 24.715 339.1 23.62 339.1 22.24C339.1 20.89 338.665 19.825 337.795 19.045C336.955 18.235 335.785 17.83 334.285 17.83H329.785V26.695ZM329.785 41.32H334.555C336.205 41.32 337.495 40.885 338.425 40.015C339.385 39.115 339.865 37.9 339.865 36.37C339.865 34.84 339.385 33.61 338.425 32.68C337.495 31.72 336.205 31.24 334.555 31.24H329.785V41.32ZM352.178 46V21.25H357.668V26.065C357.968 24.445 358.703 23.17 359.873 22.24C361.073 21.28 362.618 20.8 364.508 20.8C367.028 20.8 368.993 21.61 370.403 23.23C371.813 24.85 372.518 27.115 372.518 30.025V32.365H366.893V30.295C366.893 28.795 366.503 27.655 365.723 26.875C364.943 26.065 363.833 25.66 362.393 25.66C360.893 25.66 359.753 26.11 358.973 27.01C358.193 27.91 357.803 29.185 357.803 30.835V46H352.178ZM388.295 46.405C385.115 46.405 382.595 45.52 380.735 43.75C378.875 41.95 377.945 39.535 377.945 36.505V30.745C377.945 27.685 378.875 25.27 380.735 23.5C382.595 21.73 385.115 20.845 388.295 20.845C391.475 20.845 393.995 21.73 395.855 23.5C397.715 25.27 398.645 27.685 398.645 30.745V36.505C398.645 39.535 397.715 41.95 395.855 43.75C393.995 45.52 391.475 46.405 388.295 46.405ZM388.295 41.5C389.795 41.5 390.95 41.095 391.76 40.285C392.6 39.445 393.02 38.245 393.02 36.685V30.565C393.02 29.005 392.6 27.82 391.76 27.01C390.95 26.17 389.795 25.75 388.295 25.75C386.795 25.75 385.625 26.17 384.785 27.01C383.975 27.82 383.57 29.005 383.57 30.565V36.685C383.57 38.245 383.975 39.445 384.785 40.285C385.625 41.095 386.795 41.5 388.295 41.5ZM415.682 46.45C413.552 46.45 411.692 46.06 410.102 45.28C408.542 44.47 407.327 43.345 406.457 41.905C405.587 40.435 405.152 38.71 405.152 36.73V30.52C405.152 28.54 405.587 26.83 406.457 25.39C407.327 23.92 408.542 22.795 410.102 22.015C411.692 21.205 413.552 20.8 415.682 20.8C418.772 20.8 421.247 21.61 423.107 23.23C424.997 24.82 425.987 26.995 426.077 29.755H420.542C420.452 28.465 419.957 27.475 419.057 26.785C418.187 26.065 417.062 25.705 415.682 25.705C414.152 25.705 412.952 26.125 412.082 26.965C411.212 27.775 410.777 28.945 410.777 30.475V36.73C410.777 38.26 411.212 39.445 412.082 40.285C412.952 41.125 414.152 41.545 415.682 41.545C417.092 41.545 418.232 41.2 419.102 40.51C419.972 39.79 420.452 38.785 420.542 37.495H426.077C425.987 40.255 424.997 42.445 423.107 44.065C421.247 45.655 418.772 46.45 415.682 46.45ZM432.45 46V13.15H438.075V30.97H442.035L447.93 21.25H454.185L446.85 33.22L454.455 46H448.065L442.035 35.74H438.075V46H432.45Z" fill="white"/>
<path d="M3.42 43.48V38.305L16.47 32.275C17.07 32.005 17.655 31.78 18.225 31.6C18.825 31.42 19.29 31.285 19.62 31.195C19.29 31.135 18.825 31.015 18.225 30.835C17.625 30.655 17.04 30.445 16.47 30.205L3.42 24.13V18.865L23.58 28.36V33.985L3.42 43.48ZM29.6824 52.21V47.125H51.2824V52.21H29.6824Z" fill="white"/>
</g>
<defs>
<clipPath id="clip0_2501_2">
<rect width="456" height="59" fill="white"/>
</clipPath>
</defs>
</svg>
